<svg width="533.4979370117187px" height="122px" xmlns="http://www.w3.org/2000/svg" viewBox="-16.748968505859352 14 533.4979370117187 122" style="background: rgba(0, 0, 0, 0);" preserveAspectRatio="xMidYMid"><defs><filter id="editing-vr"><feFlood flood-color="#f00" flood-opacity="0.7" result="c1"></feFlood><feFlood flood-color="#0000ff" flood-opacity="0.7" result="c3"></feFlood><feComposite operator="in" in="c1" in2="SourceAlpha" result="text-c1"></feComposite><feComposite operator="in" in="c3" in2="SourceAlpha" result="text-c3"></feComposite><feOffset in="text-c1" dx="5" dy="-1" result="text1"></feOffset><feOffset in="text-c3" dx="-5" dy="1" result="text3"></feOffset><feBlend in="SourceGraphic" in2="text1" mode="multiply" result="text4"></feBlend><feBlend in="text4" in2="text3" mode="multiply"></feBlend></filter></defs><g filter="url(#editing-vr)"><g transform="translate(61.637720584869385, 98.68000030517578)"><path d="M2.69-39.68L2.69-39.68L2.69-39.68Q3.58-41.47 5.54-42.46L5.54-42.46L5.54-42.46Q7.49-43.46 10.18-43.46L10.18-43.46L10.18-43.46Q14.40-43.46 16.93-40.42L16.93-40.42L16.93-40.42Q19.46-37.38 19.46-30.72L19.46-30.72L19.46-7.87L34.11-42.18L41.66-42.18L43.39-9.79L43.20-7.94L58.43-42.18L67.20-42.18L46.72 0L33.09 0L31.81-19.46L23.36 0L7.94 0L6.02-30.72L6.02-30.72Q5.82-34.18 4.90-36.45L4.90-36.45L4.90-36.45Q3.97-38.72 2.69-39.68ZM77.31 1.28L77.31 1.28L77.31 1.28Q63.23 1.28 63.23-11.97L63.23-11.97L63.23-11.97Q63.23-21.38 68.42-27.46L68.42-27.46L68.42-27.46Q73.92-33.92 83.46-33.92L83.46-33.92L83.46-33.92Q90.37-33.92 93.89-30.72L93.89-30.72L93.89-30.72Q97.41-27.52 97.41-20.80L97.41-20.80L97.41-20.80Q97.41-10.56 91.90-4.61L91.90-4.61L91.90-4.61Q86.53 1.28 77.31 1.28ZM78.98-26.56L78.98-26.56L78.98-26.56Q78.21-24.83 77.60-22.24L77.60-22.24L77.60-22.24Q76.99-19.65 76.22-15.55L76.22-15.55L76.22-15.55Q75.46-11.46 75.46-6.40L75.46-6.40L75.46-6.40Q75.46-4.74 76-3.65L76-3.65L76-3.65Q76.54-2.56 78.02-2.56L78.02-2.56L78.02-2.56Q79.49-2.56 80.42-3.26L80.42-3.26L80.42-3.26Q81.34-3.97 82.05-5.63L82.05-5.63L82.05-5.63Q83.33-8.58 84.35-14.05L84.35-14.05L84.35-14.05Q85.38-19.52 85.47-21.89L85.47-21.89L85.47-21.89Q85.57-24.26 85.57-26.02L85.57-26.02L85.57-26.02Q85.57-27.78 85.06-28.93L85.06-28.93L85.06-28.93Q84.54-30.08 83.10-30.08L83.10-30.08L83.10-30.08Q81.66-30.08 80.70-29.18L80.70-29.18L80.70-29.18Q79.74-28.29 78.98-26.56ZM121.22-17.98L121.22-17.98L121.22-17.98Q123.52-22.08 123.52-26.24L123.52-26.24L123.52-26.24Q123.52-28.99 121.54-28.99L121.54-28.99L121.54-28.99Q120-28.99 118.40-26.37L118.40-26.37L118.40-26.37Q116.74-23.74 116.22-20.35L116.22-20.35L112.90 0L99.65 1.28L106.18-32.64L116.74-33.92L115.58-27.46L115.58-27.46Q118.72-33.92 125.76-33.92L125.76-33.92L125.76-33.92Q129.47-33.92 131.49-32L131.49-32L131.49-32Q133.50-30.08 133.50-26.14L133.50-26.14L133.50-26.14Q133.50-22.21 130.91-19.71L130.91-19.71L130.91-19.71Q128.32-17.22 123.90-17.22L123.90-17.22L123.90-17.22Q121.98-17.22 121.22-17.98ZM149.82-3.52L149.82-3.52L149.82-3.52Q147.84 1.28 141.50 1.28L141.50 1.28L141.50 1.28Q138.30 1.28 136.26-0.96L136.26-0.96L136.26-0.96Q134.59-2.82 134.59-4.93L134.59-4.93L134.59-4.93Q134.59-9.73 136.83-20.22L136.83-20.22L141.50-44.80L154.50-46.08L148.29-13.70L148.29-13.70Q147.20-8.96 147.20-7.30L147.20-7.30L147.20-7.30Q147.20-3.65 149.82-3.52ZM175.42-33.92L175.42-33.92L175.42-33.92Q177.73-33.92 179.52-33.41L179.52-33.41L179.52-33.41Q179.58-33.66 179.71-34.37L179.71-34.37L180.03-36.35L180.03-36.35Q180.29-37.63 180.67-39.74L180.67-39.74L181.70-44.80L194.43-46.08L187.33-8.96L187.33-8.96Q187.26-8.58 187.26-7.94L187.26-7.94L187.26-6.91L187.26-6.91Q187.26-5.50 187.97-4.45L187.97-4.45L187.97-4.45Q188.67-3.39 189.82-3.39L189.82-3.39L189.82-3.39Q188.54-0.38 184.64 0.90L184.64 0.90L184.64 0.90Q183.30 1.28 181.41 1.28L181.41 1.28L181.41 1.28Q179.52 1.28 177.79 0.29L177.79 0.29L177.79 0.29Q176.06-0.70 175.55-2.37L175.55-2.37L175.55-2.37Q174.53-0.70 172.48 0.29L172.48 0.29L172.48 0.29Q170.43 1.28 167.46 1.28L167.46 1.28L167.46 1.28Q164.48 1.28 162.02 0.51L162.02 0.51L162.02 0.51Q159.55-0.26 158.02-1.92L158.02-1.92L158.02-1.92Q155.20-5.18 155.20-12.61L155.20-12.61L155.20-12.61Q155.20-22.21 160.83-28.03L160.83-28.03L160.83-28.03Q166.46-33.92 175.42-33.92ZM174.98-30.08L174.98-30.08L174.98-30.08Q172.61-30.08 171.33-27.52L171.33-27.52L171.33-27.52Q170.05-24.96 168.74-18.62L168.74-18.62L168.74-18.62Q167.42-12.29 167.42-6.59L167.42-6.59L167.42-6.59Q167.42-2.69 169.73-2.69L169.73-2.69L169.73-2.69Q171.78-2.69 173.22-4.74L173.22-4.74L173.22-4.74Q174.66-6.78 175.23-10.18L175.23-10.18L178.69-28.93L178.69-28.93Q177.34-30.08 174.98-30.08ZM234.37-10.82L234.37-10.82L234.37-10.82Q235.97-9.73 235.97-7.33L235.97-7.33L235.97-7.33Q235.97-4.93 234.75-3.39L234.75-3.39L234.75-3.39Q233.54-1.86 231.55-0.83L231.55-0.83L231.55-0.83Q227.46 1.28 223.04 1.28L223.04 1.28L223.04 1.28Q218.62 1.28 216.03 0.32L216.03 0.32L216.03 0.32Q213.44-0.64 211.71-2.43L211.71-2.43L211.71-2.43Q208.32-5.82 208.32-12.03L208.32-12.03L208.32-12.03Q208.32-21.70 213.57-27.58L213.57-27.58L213.57-27.58Q219.20-33.92 228.99-33.92L228.99-33.92L228.99-33.92Q235.07-33.92 238.08-31.36L238.08-31.36L238.08-31.36Q240.32-29.44 240.32-26.30L240.32-26.30L240.32-26.30Q240.32-15.04 220.86-15.04L220.86-15.04L220.86-15.04Q220.61-13.38 220.61-11.97L220.61-11.97L220.61-11.97Q220.61-9.02 221.92-7.90L221.92-7.90L221.92-7.90Q223.23-6.78 225.66-6.78L225.66-6.78L225.66-6.78Q228.10-6.78 230.69-7.90L230.69-7.90L230.69-7.90Q233.28-9.02 234.37-10.82ZM221.31-17.79L221.31-17.79L221.31-17.79Q225.86-17.79 228.48-20.61L228.48-20.61L228.48-20.61Q231.10-23.30 231.10-27.58L231.10-27.58L231.10-27.58Q231.10-29.06 230.56-29.86L230.56-29.86L230.56-29.86Q230.02-30.66 228.93-30.66L228.93-30.66L228.93-30.66Q227.84-30.66 226.91-30.24L226.91-30.24L226.91-30.24Q225.98-29.82 225.02-28.42L225.02-28.42L225.02-28.42Q222.66-25.22 221.31-17.79ZM265.73-31.55L265.73-31.55L265.73-31.55Q267.84-33.92 271.49-33.92L271.49-33.92L271.49-33.92Q273.73-33.92 275.46-32.70L275.46-32.70L275.46-32.70Q277.18-31.49 277.18-29.22L277.18-29.22L277.18-29.22Q277.18-26.94 276.48-24.51L276.48-24.51L276.48-24.51Q275.78-22.08 274.69-19.58L274.69-19.58L274.69-19.58Q272.51-14.72 269.50-10.69L269.50-10.69L269.50-10.69Q265.28-4.86 261.22-1.79L261.22-1.79L261.22-1.79Q257.15 1.28 252.74 1.28L252.74 1.28L252.74 1.28Q249.15 1.28 246.98 0.45L246.98 0.45L246.98 0.45Q246.59-12.99 246.11-17.79L246.11-17.79L246.11-17.79Q245.63-22.59 245.25-25.22L245.25-25.22L245.25-25.22Q244.61-30.34 242.69-31.55L242.69-31.55L242.69-31.55Q244.16-32.83 245.60-33.38L245.60-33.38L245.60-33.38Q247.04-33.92 250.02-33.92L250.02-33.92L250.02-33.92Q252.99-33.92 255.10-31.58L255.10-31.58L255.10-31.58Q257.22-29.25 257.63-25.12L257.63-25.12L257.63-25.12Q258.05-20.99 258.05-16L258.05-16L258.05-16Q258.05-11.01 257.66-4.99L257.66-4.99L257.66-4.99Q259.65-6.40 261.76-10.69L261.76-10.69L261.76-10.69Q264.64-16.64 265.66-23.81L265.66-23.81L265.66-23.81Q265.98-25.98 265.98-28.29L265.98-28.29L265.98-28.29Q265.98-30.59 265.73-31.55ZM304.83-10.82L304.83-10.82L304.83-10.82Q306.43-9.73 306.43-7.33L306.43-7.33L306.43-7.33Q306.43-4.93 305.22-3.39L305.22-3.39L305.22-3.39Q304-1.86 302.02-0.83L302.02-0.83L302.02-0.83Q297.92 1.28 293.50 1.28L293.50 1.28L293.50 1.28Q289.09 1.28 286.50 0.32L286.50 0.32L286.50 0.32Q283.90-0.64 282.18-2.43L282.18-2.43L282.18-2.43Q278.78-5.82 278.78-12.03L278.78-12.03L278.78-12.03Q278.78-21.70 284.03-27.58L284.03-27.58L284.03-27.58Q289.66-33.92 299.46-33.92L299.46-33.92L299.46-33.92Q305.54-33.92 308.54-31.36L308.54-31.36L308.54-31.36Q310.78-29.44 310.78-26.30L310.78-26.30L310.78-26.30Q310.78-15.04 291.33-15.04L291.33-15.04L291.33-15.04Q291.07-13.38 291.07-11.97L291.07-11.97L291.07-11.97Q291.07-9.02 292.38-7.90L292.38-7.90L292.38-7.90Q293.70-6.78 296.13-6.78L296.13-6.78L296.13-6.78Q298.56-6.78 301.15-7.90L301.15-7.90L301.15-7.90Q303.74-9.02 304.83-10.82ZM291.78-17.79L291.78-17.79L291.78-17.79Q296.32-17.79 298.94-20.61L298.94-20.61L298.94-20.61Q301.57-23.30 301.57-27.58L301.57-27.58L301.57-27.58Q301.57-29.06 301.02-29.86L301.02-29.86L301.02-29.86Q300.48-30.66 299.39-30.66L299.39-30.66L299.39-30.66Q298.30-30.66 297.38-30.24L297.38-30.24L297.38-30.24Q296.45-29.82 295.49-28.42L295.49-28.42L295.49-28.42Q293.12-25.22 291.78-17.79ZM340.03 1.28L340.03 1.28L340.03 1.28Q332.29 1.28 332.29-4.74L332.29-4.74L332.29-4.74Q332.35-6.40 332.86-9.22L332.86-9.22L334.02-15.10L334.02-15.10Q335.74-23.42 335.74-25.28L335.74-25.28L335.74-25.28Q335.74-28.99 333.57-28.99L333.57-28.99L333.57-28.99Q329.92-28.99 328-19.46L328-19.46L324.22 0L311.36 1.28L318.02-32.70L328.51-33.92L327.49-27.65L327.49-27.65Q330.50-33.92 339.71-33.92L339.71-33.92L339.71-33.92Q344.19-33.92 346.08-32.03L346.08-32.03L346.08-32.03Q347.97-30.14 347.97-25.92L347.97-25.92L347.97-25.92Q347.97-21.95 345.92-12.67L345.92-12.67L345.92-12.67Q344.96-8.51 344.96-6.94L344.96-6.94L344.96-6.94Q344.96-5.38 345.82-4.48L345.82-4.48L345.82-4.48Q346.69-3.58 347.97-3.46L347.97-3.46L347.97-3.46Q347.33-1.28 345.12 0L345.12 0L345.12 0Q342.91 1.28 340.03 1.28ZM354.11-6.40L354.11-6.40L354.11-6.40Q354.11-8.13 355.01-12.48L355.01-12.48L358.40-29.76L354.62-29.76L354.88-31.68L354.88-31.68Q362.56-33.98 369.98-39.62L369.98-39.62L373.06-39.62L371.52-32.64L376.51-32.64L375.94-29.76L371.01-29.76L367.74-12.48L367.74-12.48Q366.91-8.51 366.91-7.17L366.91-7.17L366.91-7.17Q366.91-4.10 369.60-3.46L369.60-3.46L369.60-3.46Q368.96-1.28 366.66 0L366.66 0L366.66 0Q364.35 1.28 361.09 1.28L361.09 1.28L361.09 1.28Q357.82 1.28 355.97-0.77L355.97-0.77L355.97-0.77Q354.11-2.82 354.11-6.40Z" fill="#444"></path></g></g><style>text {
  font-size: 64px;
  font-family: Arial Black;
  dominant-baseline: central;
  text-anchor: middle;
}</style></svg>